<svg width="20" height="20" viewBox="0 0 20 20" fill="none" xmlns="http://www.w3.org/2000/svg">
<path fill-rule="evenodd" clip-rule="evenodd" d="M11.1566 0.280236L19.2077 4.7531C20.2641 5.33997 20.2641 6.66003 19.2077 7.2469L17.8521 8L19.2077 8.7531C20.2641 9.33997 20.2641 10.66 19.2077 11.2469L17.8521 12L19.2077 12.7531C20.2641 13.34 20.2641 14.66 19.2077 15.2469L11.1566 19.7198C10.484 20.0934 9.51599 20.0934 8.84343 19.7198L0.792265 15.2469C-0.264088 14.66 -0.264088 13.34 0.792265 12.7531L2.14785 12L0.792265 11.2469C-0.264088 10.66 -0.264088 9.33997 0.792265 8.7531L2.14785 8L0.792265 7.2469C-0.264088 6.66003 -0.264088 5.33997 0.792265 4.7531L8.84343 0.280236C9.51599 -0.0934121 10.484 -0.0934121 11.1566 0.280236ZM11.1566 11.7198L15.793 9.14396L17.3339 10L15.793 10.856L13.7339 12L10.1853 13.9714C10.1168 14.0095 9.88323 14.0095 9.81471 13.9714L6.2661 12L4.20698 10.856L2.6661 10L4.20698 9.14396L8.84343 11.7198C9.51599 12.0934 10.484 12.0934 11.1566 11.7198ZM4.20698 13.144L2.6661 14L9.81471 17.9714C9.88323 18.0095 10.1168 18.0095 10.1853 17.9714L17.3339 14L15.793 13.144L11.1566 15.7198C10.484 16.0934 9.51599 16.0934 8.84343 15.7198L4.20698 13.144ZM9.81471 2.02855C9.88323 1.99048 10.1168 1.99048 10.1853 2.02855L17.3339 6L10.1853 9.97145C10.1168 10.0095 9.88323 10.0095 9.81471 9.97145L2.6661 6L9.81471 2.02855Z" fill="#5E7488"/>
</svg>
